<svg width="900" height="340" viewBox="0 0 900 340" xmlns="http://www.w3.org/2000/svg">
<defs>
  <pattern id="plate" width="26" height="26" patternUnits="userSpaceOnUse">
    <circle cx="13" cy="13" r="7.4" fill="#12233A"/>
    <ellipse cx="13" cy="11.4" rx="7.4" ry="5.8" fill="#1B3554" opacity="0.5"/>
  </pattern>
  <linearGradient id="shine" x1="0" y1="0" x2="240" y2="0" gradientUnits="userSpaceOnUse">
    <stop offset="0%" stop-color="#ffffff" stop-opacity="0"/>
    <stop offset="50%" stop-color="#ffffff" stop-opacity="0.13"/>
    <stop offset="100%" stop-color="#ffffff" stop-opacity="0"/>
  </linearGradient>
  <linearGradient id="namegrad" x1="250" y1="0" x2="770" y2="0" gradientUnits="userSpaceOnUse">
    <stop offset="0%" stop-color="#FFFFFF"/>
    <stop offset="45%" stop-color="#FFF7E6"/>
    <stop offset="100%" stop-color="#FFE9A8"/>
  </linearGradient>
</defs>
<rect width="900" height="340" fill="#0A1420"/>
<rect width="900" height="340" fill="url(#plate)" opacity="0.85"/>
<rect x="-240" y="0" width="240" height="340" fill="url(#shine)">
  <animateTransform attributeName="transform" type="translate" values="0,0;1200,0" dur="7s" repeatCount="indefinite"/>
</rect>
<g opacity="0"><animate attributeName="opacity" values="0;1" dur="0.12s" begin="0.0s" fill="freeze"/><animateTransform attributeName="transform" type="translate" values="0,-90;0,7;0,-3;0,0" keyTimes="0;0.72;0.88;1" calcMode="spline" keySplines="0.35 0 0.35 1;0.4 0 0.6 1;0.4 0 0.6 1" dur="0.7s" begin="0.0s" fill="freeze"/><rect x="22" y="22" width="26" height="16" rx="3.5" fill="#D01012"/><rect x="22" y="22" width="26" height="4" rx="2" fill="#F0575A" opacity="0.5"/><rect x="22" y="33" width="26" height="5" rx="2.5" fill="#8F0A0C" opacity="0.65"/><rect x="22" y="22" width="2.5" height="16" rx="1.2" fill="#F0575A" opacity="0.28"/></g>
<g opacity="0"><animate attributeName="opacity" values="0;1" dur="0.12s" begin="0.05s" fill="freeze"/><animateTransform attributeName="transform" type="translate" values="0,-90;0,7;0,-3;0,0" keyTimes="0;0.72;0.88;1" calcMode="spline" keySplines="0.35 0 0.35 1;0.4 0 0.6 1;0.4 0 0.6 1" dur="0.7s" begin="0.05s" fill="freeze"/><rect x="52" y="22" width="26" height="16" rx="3.5" fill="#FE8A18"/><rect x="52" y="22" width="26" height="4" rx="2" fill="#FFB463" opacity="0.5"/><rect x="52" y="33" width="26" height="5" rx="2.5" fill="#C25F00" opacity="0.65"/><rect x="52" y="22" width="2.5" height="16" rx="1.2" fill="#FFB463" opacity="0.28"/></g>
<g opacity="0"><animate attributeName="opacity" values="0;1" dur="0.12s" begin="0.1s" fill="freeze"/><animateTransform attributeName="transform" type="translate" values="0,-90;0,7;0,-3;0,0" keyTimes="0;0.72;0.88;1" calcMode="spline" keySplines="0.35 0 0.35 1;0.4 0 0.6 1;0.4 0 0.6 1" dur="0.7s" begin="0.1s" fill="freeze"/><rect x="82" y="22" width="26" height="16" rx="3.5" fill="#F2CD37"/><rect x="82" y="22" width="26" height="4" rx="2" fill="#FBE47A" opacity="0.5"/><rect x="82" y="33" width="26" height="5" rx="2.5" fill="#B2941F" opacity="0.65"/><rect x="82" y="22" width="2.5" height="16" rx="1.2" fill="#FBE47A" opacity="0.28"/></g>
<g opacity="0"><animate attributeName="opacity" values="0;1" dur="0.12s" begin="0.15000000000000002s" fill="freeze"/><animateTransform attributeName="transform" type="translate" values="0,-90;0,7;0,-3;0,0" keyTimes="0;0.72;0.88;1" calcMode="spline" keySplines="0.35 0 0.35 1;0.4 0 0.6 1;0.4 0 0.6 1" dur="0.7s" begin="0.15000000000000002s" fill="freeze"/><rect x="112" y="22" width="26" height="16" rx="3.5" fill="#2E9E4F"/><rect x="112" y="22" width="26" height="4" rx="2" fill="#69D68C" opacity="0.5"/><rect x="112" y="33" width="26" height="5" rx="2.5" fill="#1B6B33" opacity="0.65"/><rect x="112" y="22" width="2.5" height="16" rx="1.2" fill="#69D68C" opacity="0.28"/></g>
<g opacity="0"><animate attributeName="opacity" values="0;1" dur="0.12s" begin="0.2s" fill="freeze"/><animateTransform attributeName="transform" type="translate" values="0,-90;0,7;0,-3;0,0" keyTimes="0;0.72;0.88;1" calcMode="spline" keySplines="0.35 0 0.35 1;0.4 0 0.6 1;0.4 0 0.6 1" dur="0.7s" begin="0.2s" fill="freeze"/><rect x="142" y="22" width="26" height="16" rx="3.5" fill="#12A5A0"/><rect x="142" y="22" width="26" height="4" rx="2" fill="#5BD8D3" opacity="0.5"/><rect x="142" y="33" width="26" height="5" rx="2.5" fill="#0A6E6B" opacity="0.65"/><rect x="142" y="22" width="2.5" height="16" rx="1.2" fill="#5BD8D3" opacity="0.28"/></g>
<g opacity="0"><animate attributeName="opacity" values="0;1" dur="0.12s" begin="0.25s" fill="freeze"/><animateTransform attributeName="transform" type="translate" values="0,-90;0,7;0,-3;0,0" keyTimes="0;0.72;0.88;1" calcMode="spline" keySplines="0.35 0 0.35 1;0.4 0 0.6 1;0.4 0 0.6 1" dur="0.7s" begin="0.25s" fill="freeze"/><rect x="172" y="22" width="26" height="16" rx="3.5" fill="#0D69AB"/><rect x="172" y="22" width="26" height="4" rx="2" fill="#4BA3DC" opacity="0.5"/><rect x="172" y="33" width="26" height="5" rx="2.5" fill="#084A78" opacity="0.65"/><rect x="172" y="22" width="2.5" height="16" rx="1.2" fill="#4BA3DC" opacity="0.28"/></g>
<g opacity="0"><animate attributeName="opacity" values="0;1" dur="0.12s" begin="0.30000000000000004s" fill="freeze"/><animateTransform attributeName="transform" type="translate" values="0,-90;0,7;0,-3;0,0" keyTimes="0;0.72;0.88;1" calcMode="spline" keySplines="0.35 0 0.35 1;0.4 0 0.6 1;0.4 0 0.6 1" dur="0.7s" begin="0.30000000000000004s" fill="freeze"/><rect x="202" y="22" width="26" height="16" rx="3.5" fill="#8B5CF6"/><rect x="202" y="22" width="26" height="4" rx="2" fill="#B79BFA" opacity="0.5"/><rect x="202" y="33" width="26" height="5" rx="2.5" fill="#5B31C4" opacity="0.65"/><rect x="202" y="22" width="2.5" height="16" rx="1.2" fill="#B79BFA" opacity="0.28"/></g>
<g opacity="0"><animate attributeName="opacity" values="0;1" dur="0.12s" begin="0.5s" fill="freeze"/><animateTransform attributeName="transform" type="translate" values="0,-40;0,7;0,-3;0,0" keyTimes="0;0.72;0.88;1" calcMode="spline" keySplines="0.35 0 0.35 1;0.4 0 0.6 1;0.4 0 0.6 1" dur="0.6s" begin="0.5s" fill="freeze"/><text x="878" y="34" font-family="monospace" font-size="9.5" fill="#8FA3B8" text-anchor="end" letter-spacing="2.2">SET 2026 · BUILD LOG</text></g>
<g opacity="0"><animate attributeName="opacity" values="0;1" dur="0.4s" begin="0.9s" fill="freeze"/><g><animateTransform attributeName="transform" type="translate" values="0,0;0,-5;0,0" dur="3.2s" begin="0.9s" repeatCount="indefinite"/><ellipse cx="96" cy="286" rx="46" ry="7" fill="#000" opacity="0.35"/><rect x="68" y="238" width="24" height="44" rx="3" fill="#0D69AB"/><rect x="100" y="238" width="24" height="44" rx="3" fill="#0D69AB"/><rect x="68" y="272" width="24" height="10" rx="3" fill="#084A78"/><rect x="100" y="272" width="24" height="10" rx="3" fill="#084A78"/><rect x="66" y="232" width="60" height="12" rx="3" fill="#084A78"/><path d="M74,178 L118,178 L126,232 L66,232 Z" fill="#FE8A18"/><path d="M74,178 L118,178 L119,186 L73,186 Z" fill="#FFB463" opacity="0.55"/><text x="96" y="212" font-family="monospace" font-size="8.5" font-weight="bold" fill="#7A3B00" text-anchor="middle" letter-spacing="0.6">WN</text><path d="M74,182 L64,186 L54,222 L68,226 Z" fill="#FE8A18"/><path d="M118,182 L128,186 L138,222 L124,226 Z" fill="#FE8A18"/><rect x="48" y="218" width="18" height="14" rx="5" fill="#F2CD37"/><rect x="126" y="218" width="18" height="14" rx="5" fill="#F2CD37"/><rect x="88" y="170" width="16" height="10" fill="#B2941F"/><circle cx="96" cy="146" r="27" fill="#F2CD37"/><circle cx="96" cy="140" r="27" fill="#FBE47A" opacity="0.25"/><rect x="88" y="112" width="16" height="10" rx="3" fill="#F2CD37"/><ellipse cx="96" cy="112" rx="8" ry="3" fill="#FBE47A"/><ellipse cx="87" cy="141" rx="3" ry="3.4" fill="#241B10"><animate attributeName="ry" values="3.4;3.4;0.4;3.4;3.4" keyTimes="0;0.92;0.95;0.98;1" dur="5s" repeatCount="indefinite"/></ellipse><ellipse cx="105" cy="141" rx="3" ry="3.4" fill="#241B10"><animate attributeName="ry" values="3.4;3.4;0.4;3.4;3.4" keyTimes="0;0.92;0.95;0.98;1" dur="5s" repeatCount="indefinite"/></ellipse><path d="M85,153 Q96,162 107,153" fill="none" stroke="#241B10" stroke-width="2.2" stroke-linecap="round"/></g></g>
<g opacity="0"><animate attributeName="opacity" values="0;1" dur="0.12s" begin="0.6s" fill="freeze"/><animateTransform attributeName="transform" type="translate" values="0,-50;0,7;0,-3;0,0" keyTimes="0;0.72;0.88;1" calcMode="spline" keySplines="0.35 0 0.35 1;0.4 0 0.6 1;0.4 0 0.6 1" dur="0.6s" begin="0.6s" fill="freeze"/><text x="530" y="88" font-family="monospace" font-size="9.5" fill="#FE8A18" text-anchor="middle" letter-spacing="3.4" font-weight="bold">FOUNDER @ WEBNECO · BUILDING CAREFLOW CMS · AI ENGINEER</text></g>
<g opacity="0"><animate attributeName="opacity" values="0;1" dur="0.12s" begin="0.75s" fill="freeze"/><animateTransform attributeName="transform" type="translate" values="0,-210;0,7;0,-3;0,0" keyTimes="0;0.72;0.88;1" calcMode="spline" keySplines="0.35 0 0.35 1;0.4 0 0.6 1;0.4 0 0.6 1" dur="1.05s" begin="0.75s" fill="freeze"/><rect x="255" y="95" width="16" height="13" rx="3" fill="#D01012"/><ellipse cx="263" cy="95" rx="8" ry="3.2" fill="#F0575A"/><rect x="281" y="95" width="16" height="13" rx="3" fill="#D01012"/><ellipse cx="289" cy="95" rx="8" ry="3.2" fill="#F0575A"/><rect x="307" y="95" width="16" height="13" rx="3" fill="#D01012"/><ellipse cx="315" cy="95" rx="8" ry="3.2" fill="#F0575A"/><rect x="333" y="95" width="16" height="13" rx="3" fill="#D01012"/><ellipse cx="341" cy="95" rx="8" ry="3.2" fill="#F0575A"/><rect x="359" y="95" width="16" height="13" rx="3" fill="#D01012"/><ellipse cx="367" cy="95" rx="8" ry="3.2" fill="#F0575A"/><rect x="385" y="95" width="16" height="13" rx="3" fill="#D01012"/><ellipse cx="393" cy="95" rx="8" ry="3.2" fill="#F0575A"/><rect x="411" y="95" width="16" height="13" rx="3" fill="#D01012"/><ellipse cx="419" cy="95" rx="8" ry="3.2" fill="#F0575A"/><rect x="437" y="95" width="16" height="13" rx="3" fill="#D01012"/><ellipse cx="445" cy="95" rx="8" ry="3.2" fill="#F0575A"/><rect x="463" y="95" width="16" height="13" rx="3" fill="#D01012"/><ellipse cx="471" cy="95" rx="8" ry="3.2" fill="#F0575A"/><rect x="489" y="95" width="16" height="13" rx="3" fill="#D01012"/><ellipse cx="497" cy="95" rx="8" ry="3.2" fill="#F0575A"/><rect x="515" y="95" width="16" height="13" rx="3" fill="#D01012"/><ellipse cx="523" cy="95" rx="8" ry="3.2" fill="#F0575A"/><rect x="541" y="95" width="16" height="13" rx="3" fill="#D01012"/><ellipse cx="549" cy="95" rx="8" ry="3.2" fill="#F0575A"/><rect x="567" y="95" width="16" height="13" rx="3" fill="#D01012"/><ellipse cx="575" cy="95" rx="8" ry="3.2" fill="#F0575A"/><rect x="593" y="95" width="16" height="13" rx="3" fill="#D01012"/><ellipse cx="601" cy="95" rx="8" ry="3.2" fill="#F0575A"/><rect x="619" y="95" width="16" height="13" rx="3" fill="#D01012"/><ellipse cx="627" cy="95" rx="8" ry="3.2" fill="#F0575A"/><rect x="645" y="95" width="16" height="13" rx="3" fill="#D01012"/><ellipse cx="653" cy="95" rx="8" ry="3.2" fill="#F0575A"/><rect x="671" y="95" width="16" height="13" rx="3" fill="#D01012"/><ellipse cx="679" cy="95" rx="8" ry="3.2" fill="#F0575A"/><rect x="697" y="95" width="16" height="13" rx="3" fill="#D01012"/><ellipse cx="705" cy="95" rx="8" ry="3.2" fill="#F0575A"/><rect x="723" y="95" width="16" height="13" rx="3" fill="#D01012"/><ellipse cx="731" cy="95" rx="8" ry="3.2" fill="#F0575A"/><rect x="749" y="95" width="16" height="13" rx="3" fill="#D01012"/><ellipse cx="757" cy="95" rx="8" ry="3.2" fill="#F0575A"/><rect x="250" y="104" width="520" height="58" rx="3.5" fill="#D01012"/><rect x="250" y="104" width="520" height="4" rx="2" fill="#F0575A" opacity="0.5"/><rect x="250" y="157" width="520" height="5" rx="2.5" fill="#8F0A0C" opacity="0.65"/><rect x="250" y="104" width="2.5" height="58" rx="1.2" fill="#F0575A" opacity="0.28"/><text x="510" y="146" font-family="Arial Black,Impact,sans-serif" font-size="38" font-weight="900" fill="url(#namegrad)" text-anchor="middle" letter-spacing="-0.5">ADITYA VIKRAM SINGH</text></g>
<g opacity="0"><animate attributeName="opacity" values="0;1" dur="0.12s" begin="1.15s" fill="freeze"/><animateTransform attributeName="transform" type="translate" values="0,-150;0,7;0,-3;0,0" keyTimes="0;0.72;0.88;1" calcMode="spline" keySplines="0.35 0 0.35 1;0.4 0 0.6 1;0.4 0 0.6 1" dur="0.95s" begin="1.15s" fill="freeze"/><rect x="255" y="181" width="16" height="13" rx="3" fill="#12A5A0"/><ellipse cx="263" cy="181" rx="8" ry="3.2" fill="#5BD8D3"/><rect x="281" y="181" width="16" height="13" rx="3" fill="#12A5A0"/><ellipse cx="289" cy="181" rx="8" ry="3.2" fill="#5BD8D3"/><rect x="307" y="181" width="16" height="13" rx="3" fill="#12A5A0"/><ellipse cx="315" cy="181" rx="8" ry="3.2" fill="#5BD8D3"/><rect x="333" y="181" width="16" height="13" rx="3" fill="#12A5A0"/><ellipse cx="341" cy="181" rx="8" ry="3.2" fill="#5BD8D3"/><rect x="359" y="181" width="16" height="13" rx="3" fill="#12A5A0"/><ellipse cx="367" cy="181" rx="8" ry="3.2" fill="#5BD8D3"/><rect x="250" y="190" width="130" height="30" rx="3.5" fill="#12A5A0"/><rect x="250" y="190" width="130" height="4" rx="2" fill="#5BD8D3" opacity="0.5"/><rect x="250" y="215" width="130" height="5" rx="2.5" fill="#0A6E6B" opacity="0.65"/><rect x="250" y="190" width="2.5" height="30" rx="1.2" fill="#5BD8D3" opacity="0.28"/><text x="315" y="208.78" font-family="monospace" font-size="10.5" font-weight="bold" fill="#FFFFFF" text-anchor="middle" letter-spacing="0.5">CareFlow CMS</text></g>
<g opacity="0"><animate attributeName="opacity" values="0;1" dur="0.12s" begin="1.27s" fill="freeze"/><animateTransform attributeName="transform" type="translate" values="0,-150;0,7;0,-3;0,0" keyTimes="0;0.72;0.88;1" calcMode="spline" keySplines="0.35 0 0.35 1;0.4 0 0.6 1;0.4 0 0.6 1" dur="0.95s" begin="1.27s" fill="freeze"/><rect x="391" y="181" width="16" height="13" rx="3" fill="#2E9E4F"/><ellipse cx="399" cy="181" rx="8" ry="3.2" fill="#69D68C"/><rect x="417" y="181" width="16" height="13" rx="3" fill="#2E9E4F"/><ellipse cx="425" cy="181" rx="8" ry="3.2" fill="#69D68C"/><rect x="443" y="181" width="16" height="13" rx="3" fill="#2E9E4F"/><ellipse cx="451" cy="181" rx="8" ry="3.2" fill="#69D68C"/><rect x="469" y="181" width="16" height="13" rx="3" fill="#2E9E4F"/><ellipse cx="477" cy="181" rx="8" ry="3.2" fill="#69D68C"/><rect x="495" y="181" width="16" height="13" rx="3" fill="#2E9E4F"/><ellipse cx="503" cy="181" rx="8" ry="3.2" fill="#69D68C"/><rect x="386" y="190" width="130" height="30" rx="3.5" fill="#2E9E4F"/><rect x="386" y="190" width="130" height="4" rx="2" fill="#69D68C" opacity="0.5"/><rect x="386" y="215" width="130" height="5" rx="2.5" fill="#1B6B33" opacity="0.65"/><rect x="386" y="190" width="2.5" height="30" rx="1.2" fill="#69D68C" opacity="0.28"/><text x="451" y="208.78" font-family="monospace" font-size="10.5" font-weight="bold" fill="#FFFFFF" text-anchor="middle" letter-spacing="0.5">Nirmaanly</text></g>
<g opacity="0"><animate attributeName="opacity" values="0;1" dur="0.12s" begin="1.39s" fill="freeze"/><animateTransform attributeName="transform" type="translate" values="0,-150;0,7;0,-3;0,0" keyTimes="0;0.72;0.88;1" calcMode="spline" keySplines="0.35 0 0.35 1;0.4 0 0.6 1;0.4 0 0.6 1" dur="0.95s" begin="1.39s" fill="freeze"/><rect x="527" y="181" width="16" height="13" rx="3" fill="#FE8A18"/><ellipse cx="535" cy="181" rx="8" ry="3.2" fill="#FFB463"/><rect x="553" y="181" width="16" height="13" rx="3" fill="#FE8A18"/><ellipse cx="561" cy="181" rx="8" ry="3.2" fill="#FFB463"/><rect x="579" y="181" width="16" height="13" rx="3" fill="#FE8A18"/><ellipse cx="587" cy="181" rx="8" ry="3.2" fill="#FFB463"/><rect x="605" y="181" width="16" height="13" rx="3" fill="#FE8A18"/><ellipse cx="613" cy="181" rx="8" ry="3.2" fill="#FFB463"/><rect x="631" y="181" width="16" height="13" rx="3" fill="#FE8A18"/><ellipse cx="639" cy="181" rx="8" ry="3.2" fill="#FFB463"/><rect x="522" y="190" width="130" height="30" rx="3.5" fill="#FE8A18"/><rect x="522" y="190" width="130" height="4" rx="2" fill="#FFB463" opacity="0.5"/><rect x="522" y="215" width="130" height="5" rx="2.5" fill="#C25F00" opacity="0.65"/><rect x="522" y="190" width="2.5" height="30" rx="1.2" fill="#FFB463" opacity="0.28"/><text x="587" y="208.78" font-family="monospace" font-size="10.5" font-weight="bold" fill="#FFFFFF" text-anchor="middle" letter-spacing="0.5">WebNeco</text></g>
<g opacity="0"><animate attributeName="opacity" values="0;1" dur="0.12s" begin="1.5099999999999998s" fill="freeze"/><animateTransform attributeName="transform" type="translate" values="0,-150;0,7;0,-3;0,0" keyTimes="0;0.72;0.88;1" calcMode="spline" keySplines="0.35 0 0.35 1;0.4 0 0.6 1;0.4 0 0.6 1" dur="0.95s" begin="1.5099999999999998s" fill="freeze"/><rect x="663" y="181" width="16" height="13" rx="3" fill="#8B5CF6"/><ellipse cx="671" cy="181" rx="8" ry="3.2" fill="#B79BFA"/><rect x="689" y="181" width="16" height="13" rx="3" fill="#8B5CF6"/><ellipse cx="697" cy="181" rx="8" ry="3.2" fill="#B79BFA"/><rect x="715" y="181" width="16" height="13" rx="3" fill="#8B5CF6"/><ellipse cx="723" cy="181" rx="8" ry="3.2" fill="#B79BFA"/><rect x="741" y="181" width="16" height="13" rx="3" fill="#8B5CF6"/><ellipse cx="749" cy="181" rx="8" ry="3.2" fill="#B79BFA"/><rect x="767" y="181" width="16" height="13" rx="3" fill="#8B5CF6"/><ellipse cx="775" cy="181" rx="8" ry="3.2" fill="#B79BFA"/><rect x="658" y="190" width="130" height="30" rx="3.5" fill="#8B5CF6"/><rect x="658" y="190" width="130" height="4" rx="2" fill="#B79BFA" opacity="0.5"/><rect x="658" y="215" width="130" height="5" rx="2.5" fill="#5B31C4" opacity="0.65"/><rect x="658" y="190" width="2.5" height="30" rx="1.2" fill="#B79BFA" opacity="0.28"/><text x="723" y="208.78" font-family="monospace" font-size="10.5" font-weight="bold" fill="#FFFFFF" text-anchor="middle" letter-spacing="0.5">AI Systems</text></g>
<g opacity="0"><animate attributeName="opacity" values="0;1" dur="0.12s" begin="1.7s" fill="freeze"/><animateTransform attributeName="transform" type="translate" values="0,-190;0,7;0,-3;0,0" keyTimes="0;0.72;0.88;1" calcMode="spline" keySplines="0.35 0 0.35 1;0.4 0 0.6 1;0.4 0 0.6 1" dur="0.95s" begin="1.7s" fill="freeze"/><rect x="255" y="243" width="16" height="13" rx="3" fill="#12A5A0"/><ellipse cx="263" cy="243" rx="8" ry="3.2" fill="#5BD8D3"/><rect x="281" y="243" width="16" height="13" rx="3" fill="#12A5A0"/><ellipse cx="289" cy="243" rx="8" ry="3.2" fill="#5BD8D3"/><rect x="307" y="243" width="16" height="13" rx="3" fill="#12A5A0"/><ellipse cx="315" cy="243" rx="8" ry="3.2" fill="#5BD8D3"/><rect x="333" y="243" width="16" height="13" rx="3" fill="#12A5A0"/><ellipse cx="341" cy="243" rx="8" ry="3.2" fill="#5BD8D3"/><rect x="359" y="243" width="16" height="13" rx="3" fill="#12A5A0"/><ellipse cx="367" cy="243" rx="8" ry="3.2" fill="#5BD8D3"/><rect x="250" y="252" width="130" height="34" rx="3.5" fill="#12A5A0"/><rect x="250" y="252" width="130" height="4" rx="2" fill="#5BD8D3" opacity="0.5"/><rect x="250" y="281" width="130" height="5" rx="2.5" fill="#0A6E6B" opacity="0.65"/><rect x="250" y="252" width="2.5" height="34" rx="1.2" fill="#5BD8D3" opacity="0.28"/><text x="315" y="267.06" font-family="monospace" font-size="8.5" font-weight="bold" fill="#FFFFFF" text-anchor="middle" letter-spacing="0.5">CAREFLOW CMS</text><text x="315" y="280.52" font-family="monospace" font-size="7" fill="#0A1420" text-anchor="middle" letter-spacing="0.4">LIVE</text><circle cx="262" cy="269" r="3" fill="#5BD8D3"><animate attributeName="opacity" values="1;0.2;1" dur="1.5s" repeatCount="indefinite"/></circle></g>
<g opacity="0"><animate attributeName="opacity" values="0;1" dur="0.12s" begin="1.8199999999999998s" fill="freeze"/><animateTransform attributeName="transform" type="translate" values="0,-190;0,7;0,-3;0,0" keyTimes="0;0.72;0.88;1" calcMode="spline" keySplines="0.35 0 0.35 1;0.4 0 0.6 1;0.4 0 0.6 1" dur="0.95s" begin="1.8199999999999998s" fill="freeze"/><rect x="391" y="243" width="16" height="13" rx="3" fill="#2E9E4F"/><ellipse cx="399" cy="243" rx="8" ry="3.2" fill="#69D68C"/><rect x="417" y="243" width="16" height="13" rx="3" fill="#2E9E4F"/><ellipse cx="425" cy="243" rx="8" ry="3.2" fill="#69D68C"/><rect x="443" y="243" width="16" height="13" rx="3" fill="#2E9E4F"/><ellipse cx="451" cy="243" rx="8" ry="3.2" fill="#69D68C"/><rect x="469" y="243" width="16" height="13" rx="3" fill="#2E9E4F"/><ellipse cx="477" cy="243" rx="8" ry="3.2" fill="#69D68C"/><rect x="495" y="243" width="16" height="13" rx="3" fill="#2E9E4F"/><ellipse cx="503" cy="243" rx="8" ry="3.2" fill="#69D68C"/><rect x="386" y="252" width="130" height="34" rx="3.5" fill="#2E9E4F"/><rect x="386" y="252" width="130" height="4" rx="2" fill="#69D68C" opacity="0.5"/><rect x="386" y="281" width="130" height="5" rx="2.5" fill="#1B6B33" opacity="0.65"/><rect x="386" y="252" width="2.5" height="34" rx="1.2" fill="#69D68C" opacity="0.28"/><text x="451" y="267.06" font-family="monospace" font-size="8.5" font-weight="bold" fill="#FFFFFF" text-anchor="middle" letter-spacing="0.5">NIRMAANLY</text><text x="451" y="280.52" font-family="monospace" font-size="7" fill="#0A1420" text-anchor="middle" letter-spacing="0.4">LIVE</text><circle cx="398" cy="269" r="3" fill="#69D68C"><animate attributeName="opacity" values="1;0.2;1" dur="1.85s" repeatCount="indefinite"/></circle></g>
<g opacity="0"><animate attributeName="opacity" values="0;1" dur="0.12s" begin="1.94s" fill="freeze"/><animateTransform attributeName="transform" type="translate" values="0,-190;0,7;0,-3;0,0" keyTimes="0;0.72;0.88;1" calcMode="spline" keySplines="0.35 0 0.35 1;0.4 0 0.6 1;0.4 0 0.6 1" dur="0.95s" begin="1.94s" fill="freeze"/><rect x="527" y="243" width="16" height="13" rx="3" fill="#FE8A18"/><ellipse cx="535" cy="243" rx="8" ry="3.2" fill="#FFB463"/><rect x="553" y="243" width="16" height="13" rx="3" fill="#FE8A18"/><ellipse cx="561" cy="243" rx="8" ry="3.2" fill="#FFB463"/><rect x="579" y="243" width="16" height="13" rx="3" fill="#FE8A18"/><ellipse cx="587" cy="243" rx="8" ry="3.2" fill="#FFB463"/><rect x="605" y="243" width="16" height="13" rx="3" fill="#FE8A18"/><ellipse cx="613" cy="243" rx="8" ry="3.2" fill="#FFB463"/><rect x="631" y="243" width="16" height="13" rx="3" fill="#FE8A18"/><ellipse cx="639" cy="243" rx="8" ry="3.2" fill="#FFB463"/><rect x="522" y="252" width="130" height="34" rx="3.5" fill="#FE8A18"/><rect x="522" y="252" width="130" height="4" rx="2" fill="#FFB463" opacity="0.5"/><rect x="522" y="281" width="130" height="5" rx="2.5" fill="#C25F00" opacity="0.65"/><rect x="522" y="252" width="2.5" height="34" rx="1.2" fill="#FFB463" opacity="0.28"/><text x="587" y="267.06" font-family="monospace" font-size="8.5" font-weight="bold" fill="#FFFFFF" text-anchor="middle" letter-spacing="0.5">WEBNECO</text><text x="587" y="280.52" font-family="monospace" font-size="7" fill="#0A1420" text-anchor="middle" letter-spacing="0.4">ACTIVE</text><circle cx="534" cy="269" r="3" fill="#FFB463"><animate attributeName="opacity" values="1;0.2;1" dur="2.2s" repeatCount="indefinite"/></circle></g>
<g opacity="0"><animate attributeName="opacity" values="0;1" dur="0.12s" begin="2.06s" fill="freeze"/><animateTransform attributeName="transform" type="translate" values="0,-190;0,7;0,-3;0,0" keyTimes="0;0.72;0.88;1" calcMode="spline" keySplines="0.35 0 0.35 1;0.4 0 0.6 1;0.4 0 0.6 1" dur="0.95s" begin="2.06s" fill="freeze"/><rect x="663" y="243" width="16" height="13" rx="3" fill="#8B5CF6"/><ellipse cx="671" cy="243" rx="8" ry="3.2" fill="#B79BFA"/><rect x="689" y="243" width="16" height="13" rx="3" fill="#8B5CF6"/><ellipse cx="697" cy="243" rx="8" ry="3.2" fill="#B79BFA"/><rect x="715" y="243" width="16" height="13" rx="3" fill="#8B5CF6"/><ellipse cx="723" cy="243" rx="8" ry="3.2" fill="#B79BFA"/><rect x="741" y="243" width="16" height="13" rx="3" fill="#8B5CF6"/><ellipse cx="749" cy="243" rx="8" ry="3.2" fill="#B79BFA"/><rect x="767" y="243" width="16" height="13" rx="3" fill="#8B5CF6"/><ellipse cx="775" cy="243" rx="8" ry="3.2" fill="#B79BFA"/><rect x="658" y="252" width="130" height="34" rx="3.5" fill="#8B5CF6"/><rect x="658" y="252" width="130" height="4" rx="2" fill="#B79BFA" opacity="0.5"/><rect x="658" y="281" width="130" height="5" rx="2.5" fill="#5B31C4" opacity="0.65"/><rect x="658" y="252" width="2.5" height="34" rx="1.2" fill="#B79BFA" opacity="0.28"/><text x="723" y="267.06" font-family="monospace" font-size="8.5" font-weight="bold" fill="#FFFFFF" text-anchor="middle" letter-spacing="0.5">AI LAB</text><text x="723" y="280.52" font-family="monospace" font-size="7" fill="#0A1420" text-anchor="middle" letter-spacing="0.4">BUILDING</text><circle cx="670" cy="269" r="3" fill="#B79BFA"><animate attributeName="opacity" values="1;0.2;1" dur="2.55s" repeatCount="indefinite"/></circle></g>
<g opacity="0"><animate attributeName="opacity" values="0;1" dur="0.4s" begin="2.2s" fill="freeze"/><circle cx="180" cy="60" r="9" fill="#F2CD37"/><ellipse cx="180" cy="58" rx="9" ry="7" fill="#FBE47A" opacity="0.5"/><animateTransform attributeName="transform" type="rotate" values="0 180 60;360 180 60" dur="9.6s" repeatCount="indefinite"/></g>
<g opacity="0"><animate attributeName="opacity" values="0;1" dur="0.4s" begin="2.3000000000000003s" fill="freeze"/><circle cx="196" cy="300" r="9" fill="#D01012"/><ellipse cx="196" cy="298" rx="9" ry="7" fill="#F0575A" opacity="0.5"/><animateTransform attributeName="transform" type="rotate" values="0 196 300;360 196 300" dur="12.4s" repeatCount="indefinite"/></g>
<g opacity="0"><animate attributeName="opacity" values="0;1" dur="0.4s" begin="2.4000000000000004s" fill="freeze"/><circle cx="868" cy="120" r="9" fill="#2E9E4F"/><ellipse cx="868" cy="118" rx="9" ry="7" fill="#69D68C" opacity="0.5"/><animateTransform attributeName="transform" type="rotate" values="0 868 120;360 868 120" dur="10.8s" repeatCount="indefinite"/></g>
<g opacity="0"><animate attributeName="opacity" values="0;1" dur="0.4s" begin="2.5s" fill="freeze"/><circle cx="856" cy="236" r="9" fill="#0D69AB"/><ellipse cx="856" cy="234" rx="9" ry="7" fill="#4BA3DC" opacity="0.5"/><animateTransform attributeName="transform" type="rotate" values="0 856 236;360 856 236" dur="13.6s" repeatCount="indefinite"/></g>
<g opacity="0"><animate attributeName="opacity" values="0;1" dur="0.4s" begin="2.6s" fill="freeze"/><circle cx="44" cy="74" r="9" fill="#12A5A0"/><ellipse cx="44" cy="72" rx="9" ry="7" fill="#5BD8D3" opacity="0.5"/><animateTransform attributeName="transform" type="rotate" values="0 44 74;360 44 74" dur="11.6s" repeatCount="indefinite"/></g>
</svg>
