<svg width="900" height="318" viewBox="0 0 900 318" xmlns="http://www.w3.org/2000/svg">
<defs>
  <pattern id="plate" width="26" height="26" patternUnits="userSpaceOnUse">
    <circle cx="13" cy="13" r="7.4" fill="#12233A"/>
    <ellipse cx="13" cy="11.4" rx="7.4" ry="5.8" fill="#1B3554" opacity="0.5"/>
  </pattern>
  <linearGradient id="tshine" x1="0" y1="0" x2="240" y2="0" gradientUnits="userSpaceOnUse">
    <stop offset="0%" stop-color="#ffffff" stop-opacity="0"/>
    <stop offset="50%" stop-color="#ffffff" stop-opacity="0.12"/>
    <stop offset="100%" stop-color="#ffffff" stop-opacity="0"/>
  </linearGradient>
</defs>
<rect width="900" height="318" fill="#0A1420"/>
<rect width="900" height="318" fill="url(#plate)" opacity="0.85"/>
<rect x="-240" y="0" width="240" height="318" fill="url(#tshine)"><animateTransform attributeName="transform" type="translate" values="0,0;1200,0" dur="9s" repeatCount="indefinite"/></rect>
<g opacity="0"><animate attributeName="opacity" values="0;1" dur="0.1s" begin="0.1s" fill="freeze"/><animateTransform attributeName="transform" type="translate" values="0,-90;0,6;0,-2;0,0" keyTimes="0;0.72;0.88;1" calcMode="spline" keySplines="0.35 0 0.35 1;0.4 0 0.6 1;0.4 0 0.6 1" dur="0.8s" begin="0.1s" fill="freeze"/><rect x="29.0" y="20.0" width="16" height="9" rx="3" fill="#2E9E4F"/><ellipse cx="37.0" cy="20.0" rx="8" ry="3" fill="#69D68C"/><rect x="55.0" y="20.0" width="16" height="9" rx="3" fill="#2E9E4F"/><ellipse cx="63.0" cy="20.0" rx="8" ry="3" fill="#69D68C"/><rect x="81.0" y="20.0" width="16" height="9" rx="3" fill="#2E9E4F"/><ellipse cx="89.0" cy="20.0" rx="8" ry="3" fill="#69D68C"/><rect x="107.0" y="20.0" width="16" height="9" rx="3" fill="#2E9E4F"/><ellipse cx="115.0" cy="20.0" rx="8" ry="3" fill="#69D68C"/><rect x="133.0" y="20.0" width="16" height="9" rx="3" fill="#2E9E4F"/><ellipse cx="141.0" cy="20.0" rx="8" ry="3" fill="#69D68C"/><rect x="159.0" y="20.0" width="16" height="9" rx="3" fill="#2E9E4F"/><ellipse cx="167.0" cy="20.0" rx="8" ry="3" fill="#69D68C"/><rect x="185.0" y="20.0" width="16" height="9" rx="3" fill="#2E9E4F"/><ellipse cx="193.0" cy="20.0" rx="8" ry="3" fill="#69D68C"/><rect x="24.0" y="26.0" width="182.0" height="34" rx="3.5" fill="#2E9E4F"/><rect x="24.0" y="26.0" width="182.0" height="3.5" rx="2" fill="#69D68C" opacity="0.5"/><rect x="24.0" y="56.0" width="182.0" height="4" rx="2" fill="#1B6B33" opacity="0.65"/><text x="115.0" y="47.3" font-family="monospace" font-size="12" font-weight="bold" fill="#FFFFFF" text-anchor="middle" letter-spacing="0.5">BUILD TIMELINE</text><text x="222" y="40" font-family="monospace" font-size="9.5" fill="#69D68C" letter-spacing="1.5">ONE BRICK = ONE BUILD STARTED · ROLLING 12 MONTHS</text><text x="222" y="55" font-family="monospace" font-size="8" fill="#8FA3B8" letter-spacing="1.3">4 builds predate this window (2023) · 50 total</text></g>
<text x="876" y="40" font-family="monospace" font-size="8.5" fill="#8FA3B8" text-anchor="end" letter-spacing="1.3" opacity="0">2025: 15 · 2026: 31<animate attributeName="opacity" values="0;0.85" dur="0.5s" begin="0.5s" fill="freeze"/></text>
<rect x="24" y="252" width="852" height="4" rx="2" fill="#6C6E68" opacity="0.55"/>
<g opacity="0"><animate attributeName="opacity" values="0;1" dur="0.1s" begin="0.8s" fill="freeze"/><animateTransform attributeName="transform" type="translate" values="0,-170;0,6;0,-2;0,0" keyTimes="0;0.72;0.88;1" calcMode="spline" keySplines="0.35 0 0.35 1;0.4 0 0.6 1;0.4 0 0.6 1" dur="0.8s" begin="0.8s" fill="freeze"/><rect x="57.0" y="227.0" width="16" height="9" rx="3" fill="#A0A5A9"/><ellipse cx="65.0" cy="227.0" rx="8" ry="3" fill="#CDD1D4"/><rect x="41.0" y="233.0" width="48.0" height="14" rx="3.5" fill="#A0A5A9"/><rect x="41.0" y="233.0" width="48.0" height="3.5" rx="2" fill="#CDD1D4" opacity="0.5"/><rect x="41.0" y="243.0" width="48.0" height="4" rx="2" fill="#6C6E68" opacity="0.65"/></g>
<text x="65" y="219" font-family="monospace" font-size="10" font-weight="bold" fill="#CDD1D4" text-anchor="middle" opacity="0">1<animate attributeName="opacity" values="0;1" dur="0.4s" begin="1.4s" fill="freeze"/></text>
<text x="65" y="272" font-family="monospace" font-size="8.5" fill="#8FA3B8" text-anchor="middle" letter-spacing="0.6">SEP</text>
<text x="65" y="284" font-family="monospace" font-size="7" fill="#6C6E68" text-anchor="middle">’25</text>
<g opacity="0"><animate attributeName="opacity" values="0;1" dur="0.1s" begin="0.8500000000000001s" fill="freeze"/><animateTransform attributeName="transform" type="translate" values="0,-170;0,6;0,-2;0,0" keyTimes="0;0.72;0.88;1" calcMode="spline" keySplines="0.35 0 0.35 1;0.4 0 0.6 1;0.4 0 0.6 1" dur="0.8s" begin="0.8500000000000001s" fill="freeze"/><rect x="127.0" y="227.0" width="16" height="9" rx="3" fill="#A0A5A9"/><ellipse cx="135.0" cy="227.0" rx="8" ry="3" fill="#CDD1D4"/><rect x="111.0" y="233.0" width="48.0" height="14" rx="3.5" fill="#A0A5A9"/><rect x="111.0" y="233.0" width="48.0" height="3.5" rx="2" fill="#CDD1D4" opacity="0.5"/><rect x="111.0" y="243.0" width="48.0" height="4" rx="2" fill="#6C6E68" opacity="0.65"/></g>
<g opacity="0"><animate attributeName="opacity" values="0;1" dur="0.1s" begin="0.9s" fill="freeze"/><animateTransform attributeName="transform" type="translate" values="0,-170;0,6;0,-2;0,0" keyTimes="0;0.72;0.88;1" calcMode="spline" keySplines="0.35 0 0.35 1;0.4 0 0.6 1;0.4 0 0.6 1" dur="0.8s" begin="0.9s" fill="freeze"/><rect x="127.0" y="210.0" width="16" height="9" rx="3" fill="#A0A5A9"/><ellipse cx="135.0" cy="210.0" rx="8" ry="3" fill="#CDD1D4"/><rect x="111.0" y="216.0" width="48.0" height="14" rx="3.5" fill="#A0A5A9"/><rect x="111.0" y="216.0" width="48.0" height="3.5" rx="2" fill="#CDD1D4" opacity="0.5"/><rect x="111.0" y="226.0" width="48.0" height="4" rx="2" fill="#6C6E68" opacity="0.65"/></g>
<g opacity="0"><animate attributeName="opacity" values="0;1" dur="0.1s" begin="0.9500000000000001s" fill="freeze"/><animateTransform attributeName="transform" type="translate" values="0,-170;0,6;0,-2;0,0" keyTimes="0;0.72;0.88;1" calcMode="spline" keySplines="0.35 0 0.35 1;0.4 0 0.6 1;0.4 0 0.6 1" dur="0.8s" begin="0.9500000000000001s" fill="freeze"/><rect x="127.0" y="193.0" width="16" height="9" rx="3" fill="#A0A5A9"/><ellipse cx="135.0" cy="193.0" rx="8" ry="3" fill="#CDD1D4"/><rect x="111.0" y="199.0" width="48.0" height="14" rx="3.5" fill="#A0A5A9"/><rect x="111.0" y="199.0" width="48.0" height="3.5" rx="2" fill="#CDD1D4" opacity="0.5"/><rect x="111.0" y="209.0" width="48.0" height="4" rx="2" fill="#6C6E68" opacity="0.65"/></g>
<text x="135" y="185" font-family="monospace" font-size="10" font-weight="bold" fill="#CDD1D4" text-anchor="middle" opacity="0">3<animate attributeName="opacity" values="0;1" dur="0.4s" begin="1.46s" fill="freeze"/></text>
<text x="135" y="272" font-family="monospace" font-size="8.5" fill="#8FA3B8" text-anchor="middle" letter-spacing="0.6">OCT</text>
<text x="135" y="284" font-family="monospace" font-size="7" fill="#6C6E68" text-anchor="middle">’25</text>
<g opacity="0"><animate attributeName="opacity" values="0;1" dur="0.1s" begin="1.0s" fill="freeze"/><animateTransform attributeName="transform" type="translate" values="0,-170;0,6;0,-2;0,0" keyTimes="0;0.72;0.88;1" calcMode="spline" keySplines="0.35 0 0.35 1;0.4 0 0.6 1;0.4 0 0.6 1" dur="0.8s" begin="1.0s" fill="freeze"/><rect x="197.0" y="227.0" width="16" height="9" rx="3" fill="#8B5CF6"/><ellipse cx="205.0" cy="227.0" rx="8" ry="3" fill="#B79BFA"/><rect x="181.0" y="233.0" width="48.0" height="14" rx="3.5" fill="#8B5CF6"/><rect x="181.0" y="233.0" width="48.0" height="3.5" rx="2" fill="#B79BFA" opacity="0.5"/><rect x="181.0" y="243.0" width="48.0" height="4" rx="2" fill="#5B31C4" opacity="0.65"/></g>
<g opacity="0"><animate attributeName="opacity" values="0;1" dur="0.1s" begin="1.05s" fill="freeze"/><animateTransform attributeName="transform" type="translate" values="0,-170;0,6;0,-2;0,0" keyTimes="0;0.72;0.88;1" calcMode="spline" keySplines="0.35 0 0.35 1;0.4 0 0.6 1;0.4 0 0.6 1" dur="0.8s" begin="1.05s" fill="freeze"/><rect x="197.0" y="210.0" width="16" height="9" rx="3" fill="#8B5CF6"/><ellipse cx="205.0" cy="210.0" rx="8" ry="3" fill="#B79BFA"/><rect x="181.0" y="216.0" width="48.0" height="14" rx="3.5" fill="#8B5CF6"/><rect x="181.0" y="216.0" width="48.0" height="3.5" rx="2" fill="#B79BFA" opacity="0.5"/><rect x="181.0" y="226.0" width="48.0" height="4" rx="2" fill="#5B31C4" opacity="0.65"/></g>
<g opacity="0"><animate attributeName="opacity" values="0;1" dur="0.1s" begin="1.1s" fill="freeze"/><animateTransform attributeName="transform" type="translate" values="0,-170;0,6;0,-2;0,0" keyTimes="0;0.72;0.88;1" calcMode="spline" keySplines="0.35 0 0.35 1;0.4 0 0.6 1;0.4 0 0.6 1" dur="0.8s" begin="1.1s" fill="freeze"/><rect x="197.0" y="193.0" width="16" height="9" rx="3" fill="#8B5CF6"/><ellipse cx="205.0" cy="193.0" rx="8" ry="3" fill="#B79BFA"/><rect x="181.0" y="199.0" width="48.0" height="14" rx="3.5" fill="#8B5CF6"/><rect x="181.0" y="199.0" width="48.0" height="3.5" rx="2" fill="#B79BFA" opacity="0.5"/><rect x="181.0" y="209.0" width="48.0" height="4" rx="2" fill="#5B31C4" opacity="0.65"/></g>
<g opacity="0"><animate attributeName="opacity" values="0;1" dur="0.1s" begin="1.1500000000000001s" fill="freeze"/><animateTransform attributeName="transform" type="translate" values="0,-170;0,6;0,-2;0,0" keyTimes="0;0.72;0.88;1" calcMode="spline" keySplines="0.35 0 0.35 1;0.4 0 0.6 1;0.4 0 0.6 1" dur="0.8s" begin="1.1500000000000001s" fill="freeze"/><rect x="197.0" y="176.0" width="16" height="9" rx="3" fill="#8B5CF6"/><ellipse cx="205.0" cy="176.0" rx="8" ry="3" fill="#B79BFA"/><rect x="181.0" y="182.0" width="48.0" height="14" rx="3.5" fill="#8B5CF6"/><rect x="181.0" y="182.0" width="48.0" height="3.5" rx="2" fill="#B79BFA" opacity="0.5"/><rect x="181.0" y="192.0" width="48.0" height="4" rx="2" fill="#5B31C4" opacity="0.65"/></g>
<g opacity="0"><animate attributeName="opacity" values="0;1" dur="0.1s" begin="1.2000000000000002s" fill="freeze"/><animateTransform attributeName="transform" type="translate" values="0,-170;0,6;0,-2;0,0" keyTimes="0;0.72;0.88;1" calcMode="spline" keySplines="0.35 0 0.35 1;0.4 0 0.6 1;0.4 0 0.6 1" dur="0.8s" begin="1.2000000000000002s" fill="freeze"/><rect x="197.0" y="159.0" width="16" height="9" rx="3" fill="#8B5CF6"/><ellipse cx="205.0" cy="159.0" rx="8" ry="3" fill="#B79BFA"/><rect x="181.0" y="165.0" width="48.0" height="14" rx="3.5" fill="#8B5CF6"/><rect x="181.0" y="165.0" width="48.0" height="3.5" rx="2" fill="#B79BFA" opacity="0.5"/><rect x="181.0" y="175.0" width="48.0" height="4" rx="2" fill="#5B31C4" opacity="0.65"/></g>
<g opacity="0"><animate attributeName="opacity" values="0;1" dur="0.1s" begin="1.25s" fill="freeze"/><animateTransform attributeName="transform" type="translate" values="0,-170;0,6;0,-2;0,0" keyTimes="0;0.72;0.88;1" calcMode="spline" keySplines="0.35 0 0.35 1;0.4 0 0.6 1;0.4 0 0.6 1" dur="0.8s" begin="1.25s" fill="freeze"/><rect x="197.0" y="142.0" width="16" height="9" rx="3" fill="#8B5CF6"/><ellipse cx="205.0" cy="142.0" rx="8" ry="3" fill="#B79BFA"/><rect x="181.0" y="148.0" width="48.0" height="14" rx="3.5" fill="#8B5CF6"/><rect x="181.0" y="148.0" width="48.0" height="3.5" rx="2" fill="#B79BFA" opacity="0.5"/><rect x="181.0" y="158.0" width="48.0" height="4" rx="2" fill="#5B31C4" opacity="0.65"/></g>
<g opacity="0"><animate attributeName="opacity" values="0;1" dur="0.1s" begin="1.3s" fill="freeze"/><animateTransform attributeName="transform" type="translate" values="0,-170;0,6;0,-2;0,0" keyTimes="0;0.72;0.88;1" calcMode="spline" keySplines="0.35 0 0.35 1;0.4 0 0.6 1;0.4 0 0.6 1" dur="0.8s" begin="1.3s" fill="freeze"/><rect x="197.0" y="125.0" width="16" height="9" rx="3" fill="#8B5CF6"/><ellipse cx="205.0" cy="125.0" rx="8" ry="3" fill="#B79BFA"/><rect x="181.0" y="131.0" width="48.0" height="14" rx="3.5" fill="#8B5CF6"/><rect x="181.0" y="131.0" width="48.0" height="3.5" rx="2" fill="#B79BFA" opacity="0.5"/><rect x="181.0" y="141.0" width="48.0" height="4" rx="2" fill="#5B31C4" opacity="0.65"/></g>
<g opacity="0"><animate attributeName="opacity" values="0;1" dur="0.1s" begin="1.35s" fill="freeze"/><animateTransform attributeName="transform" type="translate" values="0,-170;0,6;0,-2;0,0" keyTimes="0;0.72;0.88;1" calcMode="spline" keySplines="0.35 0 0.35 1;0.4 0 0.6 1;0.4 0 0.6 1" dur="0.8s" begin="1.35s" fill="freeze"/><rect x="197.0" y="108.0" width="16" height="9" rx="3" fill="#8B5CF6"/><ellipse cx="205.0" cy="108.0" rx="8" ry="3" fill="#B79BFA"/><rect x="181.0" y="114.0" width="48.0" height="14" rx="3.5" fill="#8B5CF6"/><rect x="181.0" y="114.0" width="48.0" height="3.5" rx="2" fill="#B79BFA" opacity="0.5"/><rect x="181.0" y="124.0" width="48.0" height="4" rx="2" fill="#5B31C4" opacity="0.65"/></g>
<text x="205" y="100" font-family="monospace" font-size="10" font-weight="bold" fill="#B79BFA" text-anchor="middle" opacity="0">8<animate attributeName="opacity" values="0;1" dur="0.4s" begin="1.52s" fill="freeze"/></text>
<text x="205" y="272" font-family="monospace" font-size="8.5" fill="#8FA3B8" text-anchor="middle" letter-spacing="0.6">NOV</text>
<text x="205" y="284" font-family="monospace" font-size="7" fill="#6C6E68" text-anchor="middle">’25</text>
<g opacity="0"><animate attributeName="opacity" values="0;1" dur="0.1s" begin="1.4000000000000001s" fill="freeze"/><animateTransform attributeName="transform" type="translate" values="0,-170;0,6;0,-2;0,0" keyTimes="0;0.72;0.88;1" calcMode="spline" keySplines="0.35 0 0.35 1;0.4 0 0.6 1;0.4 0 0.6 1" dur="0.8s" begin="1.4000000000000001s" fill="freeze"/><rect x="267.0" y="227.0" width="16" height="9" rx="3" fill="#A0A5A9"/><ellipse cx="275.0" cy="227.0" rx="8" ry="3" fill="#CDD1D4"/><rect x="251.0" y="233.0" width="48.0" height="14" rx="3.5" fill="#A0A5A9"/><rect x="251.0" y="233.0" width="48.0" height="3.5" rx="2" fill="#CDD1D4" opacity="0.5"/><rect x="251.0" y="243.0" width="48.0" height="4" rx="2" fill="#6C6E68" opacity="0.65"/></g>
<g opacity="0"><animate attributeName="opacity" values="0;1" dur="0.1s" begin="1.4500000000000002s" fill="freeze"/><animateTransform attributeName="transform" type="translate" values="0,-170;0,6;0,-2;0,0" keyTimes="0;0.72;0.88;1" calcMode="spline" keySplines="0.35 0 0.35 1;0.4 0 0.6 1;0.4 0 0.6 1" dur="0.8s" begin="1.4500000000000002s" fill="freeze"/><rect x="267.0" y="210.0" width="16" height="9" rx="3" fill="#A0A5A9"/><ellipse cx="275.0" cy="210.0" rx="8" ry="3" fill="#CDD1D4"/><rect x="251.0" y="216.0" width="48.0" height="14" rx="3.5" fill="#A0A5A9"/><rect x="251.0" y="216.0" width="48.0" height="3.5" rx="2" fill="#CDD1D4" opacity="0.5"/><rect x="251.0" y="226.0" width="48.0" height="4" rx="2" fill="#6C6E68" opacity="0.65"/></g>
<g opacity="0"><animate attributeName="opacity" values="0;1" dur="0.1s" begin="1.5s" fill="freeze"/><animateTransform attributeName="transform" type="translate" values="0,-170;0,6;0,-2;0,0" keyTimes="0;0.72;0.88;1" calcMode="spline" keySplines="0.35 0 0.35 1;0.4 0 0.6 1;0.4 0 0.6 1" dur="0.8s" begin="1.5s" fill="freeze"/><rect x="267.0" y="193.0" width="16" height="9" rx="3" fill="#A0A5A9"/><ellipse cx="275.0" cy="193.0" rx="8" ry="3" fill="#CDD1D4"/><rect x="251.0" y="199.0" width="48.0" height="14" rx="3.5" fill="#A0A5A9"/><rect x="251.0" y="199.0" width="48.0" height="3.5" rx="2" fill="#CDD1D4" opacity="0.5"/><rect x="251.0" y="209.0" width="48.0" height="4" rx="2" fill="#6C6E68" opacity="0.65"/></g>
<text x="275" y="185" font-family="monospace" font-size="10" font-weight="bold" fill="#CDD1D4" text-anchor="middle" opacity="0">3<animate attributeName="opacity" values="0;1" dur="0.4s" begin="1.5799999999999998s" fill="freeze"/></text>
<text x="275" y="272" font-family="monospace" font-size="8.5" fill="#8FA3B8" text-anchor="middle" letter-spacing="0.6">DEC</text>
<text x="275" y="284" font-family="monospace" font-size="7" fill="#6C6E68" text-anchor="middle">’25</text>
<g opacity="0"><animate attributeName="opacity" values="0;1" dur="0.1s" begin="1.55s" fill="freeze"/><animateTransform attributeName="transform" type="translate" values="0,-170;0,6;0,-2;0,0" keyTimes="0;0.72;0.88;1" calcMode="spline" keySplines="0.35 0 0.35 1;0.4 0 0.6 1;0.4 0 0.6 1" dur="0.8s" begin="1.55s" fill="freeze"/><rect x="337.0" y="227.0" width="16" height="9" rx="3" fill="#0D69AB"/><ellipse cx="345.0" cy="227.0" rx="8" ry="3" fill="#4BA3DC"/><rect x="321.0" y="233.0" width="48.0" height="14" rx="3.5" fill="#0D69AB"/><rect x="321.0" y="233.0" width="48.0" height="3.5" rx="2" fill="#4BA3DC" opacity="0.5"/><rect x="321.0" y="243.0" width="48.0" height="4" rx="2" fill="#084A78" opacity="0.65"/></g>
<g opacity="0"><animate attributeName="opacity" values="0;1" dur="0.1s" begin="1.6s" fill="freeze"/><animateTransform attributeName="transform" type="translate" values="0,-170;0,6;0,-2;0,0" keyTimes="0;0.72;0.88;1" calcMode="spline" keySplines="0.35 0 0.35 1;0.4 0 0.6 1;0.4 0 0.6 1" dur="0.8s" begin="1.6s" fill="freeze"/><rect x="337.0" y="210.0" width="16" height="9" rx="3" fill="#0D69AB"/><ellipse cx="345.0" cy="210.0" rx="8" ry="3" fill="#4BA3DC"/><rect x="321.0" y="216.0" width="48.0" height="14" rx="3.5" fill="#0D69AB"/><rect x="321.0" y="216.0" width="48.0" height="3.5" rx="2" fill="#4BA3DC" opacity="0.5"/><rect x="321.0" y="226.0" width="48.0" height="4" rx="2" fill="#084A78" opacity="0.65"/></g>
<g opacity="0"><animate attributeName="opacity" values="0;1" dur="0.1s" begin="1.6500000000000001s" fill="freeze"/><animateTransform attributeName="transform" type="translate" values="0,-170;0,6;0,-2;0,0" keyTimes="0;0.72;0.88;1" calcMode="spline" keySplines="0.35 0 0.35 1;0.4 0 0.6 1;0.4 0 0.6 1" dur="0.8s" begin="1.6500000000000001s" fill="freeze"/><rect x="337.0" y="193.0" width="16" height="9" rx="3" fill="#0D69AB"/><ellipse cx="345.0" cy="193.0" rx="8" ry="3" fill="#4BA3DC"/><rect x="321.0" y="199.0" width="48.0" height="14" rx="3.5" fill="#0D69AB"/><rect x="321.0" y="199.0" width="48.0" height="3.5" rx="2" fill="#4BA3DC" opacity="0.5"/><rect x="321.0" y="209.0" width="48.0" height="4" rx="2" fill="#084A78" opacity="0.65"/></g>
<g opacity="0"><animate attributeName="opacity" values="0;1" dur="0.1s" begin="1.7000000000000002s" fill="freeze"/><animateTransform attributeName="transform" type="translate" values="0,-170;0,6;0,-2;0,0" keyTimes="0;0.72;0.88;1" calcMode="spline" keySplines="0.35 0 0.35 1;0.4 0 0.6 1;0.4 0 0.6 1" dur="0.8s" begin="1.7000000000000002s" fill="freeze"/><rect x="337.0" y="176.0" width="16" height="9" rx="3" fill="#0D69AB"/><ellipse cx="345.0" cy="176.0" rx="8" ry="3" fill="#4BA3DC"/><rect x="321.0" y="182.0" width="48.0" height="14" rx="3.5" fill="#0D69AB"/><rect x="321.0" y="182.0" width="48.0" height="3.5" rx="2" fill="#4BA3DC" opacity="0.5"/><rect x="321.0" y="192.0" width="48.0" height="4" rx="2" fill="#084A78" opacity="0.65"/></g>
<g opacity="0"><animate attributeName="opacity" values="0;1" dur="0.1s" begin="1.75s" fill="freeze"/><animateTransform attributeName="transform" type="translate" values="0,-170;0,6;0,-2;0,0" keyTimes="0;0.72;0.88;1" calcMode="spline" keySplines="0.35 0 0.35 1;0.4 0 0.6 1;0.4 0 0.6 1" dur="0.8s" begin="1.75s" fill="freeze"/><rect x="337.0" y="159.0" width="16" height="9" rx="3" fill="#0D69AB"/><ellipse cx="345.0" cy="159.0" rx="8" ry="3" fill="#4BA3DC"/><rect x="321.0" y="165.0" width="48.0" height="14" rx="3.5" fill="#0D69AB"/><rect x="321.0" y="165.0" width="48.0" height="3.5" rx="2" fill="#4BA3DC" opacity="0.5"/><rect x="321.0" y="175.0" width="48.0" height="4" rx="2" fill="#084A78" opacity="0.65"/></g>
<text x="345" y="151" font-family="monospace" font-size="10" font-weight="bold" fill="#4BA3DC" text-anchor="middle" opacity="0">5<animate attributeName="opacity" values="0;1" dur="0.4s" begin="1.64s" fill="freeze"/></text>
<text x="345" y="272" font-family="monospace" font-size="8.5" fill="#8FA3B8" text-anchor="middle" letter-spacing="0.6">JAN</text>
<text x="345" y="284" font-family="monospace" font-size="7" fill="#6C6E68" text-anchor="middle">’26</text>
<g opacity="0"><animate attributeName="opacity" values="0;1" dur="0.1s" begin="1.8s" fill="freeze"/><animateTransform attributeName="transform" type="translate" values="0,-170;0,6;0,-2;0,0" keyTimes="0;0.72;0.88;1" calcMode="spline" keySplines="0.35 0 0.35 1;0.4 0 0.6 1;0.4 0 0.6 1" dur="0.8s" begin="1.8s" fill="freeze"/><rect x="407.0" y="227.0" width="16" height="9" rx="3" fill="#A0A5A9"/><ellipse cx="415.0" cy="227.0" rx="8" ry="3" fill="#CDD1D4"/><rect x="391.0" y="233.0" width="48.0" height="14" rx="3.5" fill="#A0A5A9"/><rect x="391.0" y="233.0" width="48.0" height="3.5" rx="2" fill="#CDD1D4" opacity="0.5"/><rect x="391.0" y="243.0" width="48.0" height="4" rx="2" fill="#6C6E68" opacity="0.65"/></g>
<g opacity="0"><animate attributeName="opacity" values="0;1" dur="0.1s" begin="1.85s" fill="freeze"/><animateTransform attributeName="transform" type="translate" values="0,-170;0,6;0,-2;0,0" keyTimes="0;0.72;0.88;1" calcMode="spline" keySplines="0.35 0 0.35 1;0.4 0 0.6 1;0.4 0 0.6 1" dur="0.8s" begin="1.85s" fill="freeze"/><rect x="407.0" y="210.0" width="16" height="9" rx="3" fill="#A0A5A9"/><ellipse cx="415.0" cy="210.0" rx="8" ry="3" fill="#CDD1D4"/><rect x="391.0" y="216.0" width="48.0" height="14" rx="3.5" fill="#A0A5A9"/><rect x="391.0" y="216.0" width="48.0" height="3.5" rx="2" fill="#CDD1D4" opacity="0.5"/><rect x="391.0" y="226.0" width="48.0" height="4" rx="2" fill="#6C6E68" opacity="0.65"/></g>
<text x="415" y="202" font-family="monospace" font-size="10" font-weight="bold" fill="#CDD1D4" text-anchor="middle" opacity="0">2<animate attributeName="opacity" values="0;1" dur="0.4s" begin="1.7s" fill="freeze"/></text>
<text x="415" y="272" font-family="monospace" font-size="8.5" fill="#8FA3B8" text-anchor="middle" letter-spacing="0.6">FEB</text>
<text x="415" y="284" font-family="monospace" font-size="7" fill="#6C6E68" text-anchor="middle">’26</text>
<g opacity="0"><animate attributeName="opacity" values="0;1" dur="0.1s" begin="1.9000000000000001s" fill="freeze"/><animateTransform attributeName="transform" type="translate" values="0,-170;0,6;0,-2;0,0" keyTimes="0;0.72;0.88;1" calcMode="spline" keySplines="0.35 0 0.35 1;0.4 0 0.6 1;0.4 0 0.6 1" dur="0.8s" begin="1.9000000000000001s" fill="freeze"/><rect x="477.0" y="227.0" width="16" height="9" rx="3" fill="#12A5A0"/><ellipse cx="485.0" cy="227.0" rx="8" ry="3" fill="#5BD8D3"/><rect x="461.0" y="233.0" width="48.0" height="14" rx="3.5" fill="#12A5A0"/><rect x="461.0" y="233.0" width="48.0" height="3.5" rx="2" fill="#5BD8D3" opacity="0.5"/><rect x="461.0" y="243.0" width="48.0" height="4" rx="2" fill="#0A6E6B" opacity="0.65"/></g>
<g opacity="0"><animate attributeName="opacity" values="0;1" dur="0.1s" begin="1.9500000000000002s" fill="freeze"/><animateTransform attributeName="transform" type="translate" values="0,-170;0,6;0,-2;0,0" keyTimes="0;0.72;0.88;1" calcMode="spline" keySplines="0.35 0 0.35 1;0.4 0 0.6 1;0.4 0 0.6 1" dur="0.8s" begin="1.9500000000000002s" fill="freeze"/><rect x="477.0" y="210.0" width="16" height="9" rx="3" fill="#12A5A0"/><ellipse cx="485.0" cy="210.0" rx="8" ry="3" fill="#5BD8D3"/><rect x="461.0" y="216.0" width="48.0" height="14" rx="3.5" fill="#12A5A0"/><rect x="461.0" y="216.0" width="48.0" height="3.5" rx="2" fill="#5BD8D3" opacity="0.5"/><rect x="461.0" y="226.0" width="48.0" height="4" rx="2" fill="#0A6E6B" opacity="0.65"/></g>
<g opacity="0"><animate attributeName="opacity" values="0;1" dur="0.1s" begin="2.0s" fill="freeze"/><animateTransform attributeName="transform" type="translate" values="0,-170;0,6;0,-2;0,0" keyTimes="0;0.72;0.88;1" calcMode="spline" keySplines="0.35 0 0.35 1;0.4 0 0.6 1;0.4 0 0.6 1" dur="0.8s" begin="2.0s" fill="freeze"/><rect x="477.0" y="193.0" width="16" height="9" rx="3" fill="#12A5A0"/><ellipse cx="485.0" cy="193.0" rx="8" ry="3" fill="#5BD8D3"/><rect x="461.0" y="199.0" width="48.0" height="14" rx="3.5" fill="#12A5A0"/><rect x="461.0" y="199.0" width="48.0" height="3.5" rx="2" fill="#5BD8D3" opacity="0.5"/><rect x="461.0" y="209.0" width="48.0" height="4" rx="2" fill="#0A6E6B" opacity="0.65"/></g>
<g opacity="0"><animate attributeName="opacity" values="0;1" dur="0.1s" begin="2.05s" fill="freeze"/><animateTransform attributeName="transform" type="translate" values="0,-170;0,6;0,-2;0,0" keyTimes="0;0.72;0.88;1" calcMode="spline" keySplines="0.35 0 0.35 1;0.4 0 0.6 1;0.4 0 0.6 1" dur="0.8s" begin="2.05s" fill="freeze"/><rect x="477.0" y="176.0" width="16" height="9" rx="3" fill="#12A5A0"/><ellipse cx="485.0" cy="176.0" rx="8" ry="3" fill="#5BD8D3"/><rect x="461.0" y="182.0" width="48.0" height="14" rx="3.5" fill="#12A5A0"/><rect x="461.0" y="182.0" width="48.0" height="3.5" rx="2" fill="#5BD8D3" opacity="0.5"/><rect x="461.0" y="192.0" width="48.0" height="4" rx="2" fill="#0A6E6B" opacity="0.65"/></g>
<g opacity="0"><animate attributeName="opacity" values="0;1" dur="0.1s" begin="2.1s" fill="freeze"/><animateTransform attributeName="transform" type="translate" values="0,-170;0,6;0,-2;0,0" keyTimes="0;0.72;0.88;1" calcMode="spline" keySplines="0.35 0 0.35 1;0.4 0 0.6 1;0.4 0 0.6 1" dur="0.8s" begin="2.1s" fill="freeze"/><rect x="477.0" y="159.0" width="16" height="9" rx="3" fill="#12A5A0"/><ellipse cx="485.0" cy="159.0" rx="8" ry="3" fill="#5BD8D3"/><rect x="461.0" y="165.0" width="48.0" height="14" rx="3.5" fill="#12A5A0"/><rect x="461.0" y="165.0" width="48.0" height="3.5" rx="2" fill="#5BD8D3" opacity="0.5"/><rect x="461.0" y="175.0" width="48.0" height="4" rx="2" fill="#0A6E6B" opacity="0.65"/></g>
<g opacity="0"><animate attributeName="opacity" values="0;1" dur="0.1s" begin="2.1500000000000004s" fill="freeze"/><animateTransform attributeName="transform" type="translate" values="0,-170;0,6;0,-2;0,0" keyTimes="0;0.72;0.88;1" calcMode="spline" keySplines="0.35 0 0.35 1;0.4 0 0.6 1;0.4 0 0.6 1" dur="0.8s" begin="2.1500000000000004s" fill="freeze"/><rect x="477.0" y="142.0" width="16" height="9" rx="3" fill="#12A5A0"/><ellipse cx="485.0" cy="142.0" rx="8" ry="3" fill="#5BD8D3"/><rect x="461.0" y="148.0" width="48.0" height="14" rx="3.5" fill="#12A5A0"/><rect x="461.0" y="148.0" width="48.0" height="3.5" rx="2" fill="#5BD8D3" opacity="0.5"/><rect x="461.0" y="158.0" width="48.0" height="4" rx="2" fill="#0A6E6B" opacity="0.65"/></g>
<g opacity="0"><animate attributeName="opacity" values="0;1" dur="0.1s" begin="2.2s" fill="freeze"/><animateTransform attributeName="transform" type="translate" values="0,-170;0,6;0,-2;0,0" keyTimes="0;0.72;0.88;1" calcMode="spline" keySplines="0.35 0 0.35 1;0.4 0 0.6 1;0.4 0 0.6 1" dur="0.8s" begin="2.2s" fill="freeze"/><rect x="477.0" y="125.0" width="16" height="9" rx="3" fill="#12A5A0"/><ellipse cx="485.0" cy="125.0" rx="8" ry="3" fill="#5BD8D3"/><rect x="461.0" y="131.0" width="48.0" height="14" rx="3.5" fill="#12A5A0"/><rect x="461.0" y="131.0" width="48.0" height="3.5" rx="2" fill="#5BD8D3" opacity="0.5"/><rect x="461.0" y="141.0" width="48.0" height="4" rx="2" fill="#0A6E6B" opacity="0.65"/></g>
<text x="485" y="117" font-family="monospace" font-size="10" font-weight="bold" fill="#5BD8D3" text-anchor="middle" opacity="0">7<animate attributeName="opacity" values="0;1" dur="0.4s" begin="1.7599999999999998s" fill="freeze"/></text>
<text x="485" y="272" font-family="monospace" font-size="8.5" fill="#8FA3B8" text-anchor="middle" letter-spacing="0.6">MAR</text>
<text x="485" y="284" font-family="monospace" font-size="7" fill="#6C6E68" text-anchor="middle">’26</text>
<g opacity="0"><animate attributeName="opacity" values="0;1" dur="0.1s" begin="2.25s" fill="freeze"/><animateTransform attributeName="transform" type="translate" values="0,-170;0,6;0,-2;0,0" keyTimes="0;0.72;0.88;1" calcMode="spline" keySplines="0.35 0 0.35 1;0.4 0 0.6 1;0.4 0 0.6 1" dur="0.8s" begin="2.25s" fill="freeze"/><rect x="547.0" y="227.0" width="16" height="9" rx="3" fill="#FE8A18"/><ellipse cx="555.0" cy="227.0" rx="8" ry="3" fill="#FFB463"/><rect x="531.0" y="233.0" width="48.0" height="14" rx="3.5" fill="#FE8A18"/><rect x="531.0" y="233.0" width="48.0" height="3.5" rx="2" fill="#FFB463" opacity="0.5"/><rect x="531.0" y="243.0" width="48.0" height="4" rx="2" fill="#C25F00" opacity="0.65"/></g>
<g opacity="0"><animate attributeName="opacity" values="0;1" dur="0.1s" begin="2.3s" fill="freeze"/><animateTransform attributeName="transform" type="translate" values="0,-170;0,6;0,-2;0,0" keyTimes="0;0.72;0.88;1" calcMode="spline" keySplines="0.35 0 0.35 1;0.4 0 0.6 1;0.4 0 0.6 1" dur="0.8s" begin="2.3s" fill="freeze"/><rect x="547.0" y="210.0" width="16" height="9" rx="3" fill="#FE8A18"/><ellipse cx="555.0" cy="210.0" rx="8" ry="3" fill="#FFB463"/><rect x="531.0" y="216.0" width="48.0" height="14" rx="3.5" fill="#FE8A18"/><rect x="531.0" y="216.0" width="48.0" height="3.5" rx="2" fill="#FFB463" opacity="0.5"/><rect x="531.0" y="226.0" width="48.0" height="4" rx="2" fill="#C25F00" opacity="0.65"/></g>
<g opacity="0"><animate attributeName="opacity" values="0;1" dur="0.1s" begin="2.35s" fill="freeze"/><animateTransform attributeName="transform" type="translate" values="0,-170;0,6;0,-2;0,0" keyTimes="0;0.72;0.88;1" calcMode="spline" keySplines="0.35 0 0.35 1;0.4 0 0.6 1;0.4 0 0.6 1" dur="0.8s" begin="2.35s" fill="freeze"/><rect x="547.0" y="193.0" width="16" height="9" rx="3" fill="#FE8A18"/><ellipse cx="555.0" cy="193.0" rx="8" ry="3" fill="#FFB463"/><rect x="531.0" y="199.0" width="48.0" height="14" rx="3.5" fill="#FE8A18"/><rect x="531.0" y="199.0" width="48.0" height="3.5" rx="2" fill="#FFB463" opacity="0.5"/><rect x="531.0" y="209.0" width="48.0" height="4" rx="2" fill="#C25F00" opacity="0.65"/></g>
<g opacity="0"><animate attributeName="opacity" values="0;1" dur="0.1s" begin="2.4000000000000004s" fill="freeze"/><animateTransform attributeName="transform" type="translate" values="0,-170;0,6;0,-2;0,0" keyTimes="0;0.72;0.88;1" calcMode="spline" keySplines="0.35 0 0.35 1;0.4 0 0.6 1;0.4 0 0.6 1" dur="0.8s" begin="2.4000000000000004s" fill="freeze"/><rect x="547.0" y="176.0" width="16" height="9" rx="3" fill="#FE8A18"/><ellipse cx="555.0" cy="176.0" rx="8" ry="3" fill="#FFB463"/><rect x="531.0" y="182.0" width="48.0" height="14" rx="3.5" fill="#FE8A18"/><rect x="531.0" y="182.0" width="48.0" height="3.5" rx="2" fill="#FFB463" opacity="0.5"/><rect x="531.0" y="192.0" width="48.0" height="4" rx="2" fill="#C25F00" opacity="0.65"/></g>
<g opacity="0"><animate attributeName="opacity" values="0;1" dur="0.1s" begin="2.45s" fill="freeze"/><animateTransform attributeName="transform" type="translate" values="0,-170;0,6;0,-2;0,0" keyTimes="0;0.72;0.88;1" calcMode="spline" keySplines="0.35 0 0.35 1;0.4 0 0.6 1;0.4 0 0.6 1" dur="0.8s" begin="2.45s" fill="freeze"/><rect x="547.0" y="159.0" width="16" height="9" rx="3" fill="#FE8A18"/><ellipse cx="555.0" cy="159.0" rx="8" ry="3" fill="#FFB463"/><rect x="531.0" y="165.0" width="48.0" height="14" rx="3.5" fill="#FE8A18"/><rect x="531.0" y="165.0" width="48.0" height="3.5" rx="2" fill="#FFB463" opacity="0.5"/><rect x="531.0" y="175.0" width="48.0" height="4" rx="2" fill="#C25F00" opacity="0.65"/></g>
<g opacity="0"><animate attributeName="opacity" values="0;1" dur="0.1s" begin="2.5s" fill="freeze"/><animateTransform attributeName="transform" type="translate" values="0,-170;0,6;0,-2;0,0" keyTimes="0;0.72;0.88;1" calcMode="spline" keySplines="0.35 0 0.35 1;0.4 0 0.6 1;0.4 0 0.6 1" dur="0.8s" begin="2.5s" fill="freeze"/><rect x="547.0" y="142.0" width="16" height="9" rx="3" fill="#FE8A18"/><ellipse cx="555.0" cy="142.0" rx="8" ry="3" fill="#FFB463"/><rect x="531.0" y="148.0" width="48.0" height="14" rx="3.5" fill="#FE8A18"/><rect x="531.0" y="148.0" width="48.0" height="3.5" rx="2" fill="#FFB463" opacity="0.5"/><rect x="531.0" y="158.0" width="48.0" height="4" rx="2" fill="#C25F00" opacity="0.65"/></g>
<g opacity="0"><animate attributeName="opacity" values="0;1" dur="0.1s" begin="2.55s" fill="freeze"/><animateTransform attributeName="transform" type="translate" values="0,-170;0,6;0,-2;0,0" keyTimes="0;0.72;0.88;1" calcMode="spline" keySplines="0.35 0 0.35 1;0.4 0 0.6 1;0.4 0 0.6 1" dur="0.8s" begin="2.55s" fill="freeze"/><rect x="547.0" y="125.0" width="16" height="9" rx="3" fill="#FE8A18"/><ellipse cx="555.0" cy="125.0" rx="8" ry="3" fill="#FFB463"/><rect x="531.0" y="131.0" width="48.0" height="14" rx="3.5" fill="#FE8A18"/><rect x="531.0" y="131.0" width="48.0" height="3.5" rx="2" fill="#FFB463" opacity="0.5"/><rect x="531.0" y="141.0" width="48.0" height="4" rx="2" fill="#C25F00" opacity="0.65"/></g>
<g opacity="0"><animate attributeName="opacity" values="0;1" dur="0.1s" begin="2.6s" fill="freeze"/><animateTransform attributeName="transform" type="translate" values="0,-170;0,6;0,-2;0,0" keyTimes="0;0.72;0.88;1" calcMode="spline" keySplines="0.35 0 0.35 1;0.4 0 0.6 1;0.4 0 0.6 1" dur="0.8s" begin="2.6s" fill="freeze"/><rect x="547.0" y="108.0" width="16" height="9" rx="3" fill="#FE8A18"/><ellipse cx="555.0" cy="108.0" rx="8" ry="3" fill="#FFB463"/><rect x="531.0" y="114.0" width="48.0" height="14" rx="3.5" fill="#FE8A18"/><rect x="531.0" y="114.0" width="48.0" height="3.5" rx="2" fill="#FFB463" opacity="0.5"/><rect x="531.0" y="124.0" width="48.0" height="4" rx="2" fill="#C25F00" opacity="0.65"/></g>
<g opacity="0"><animate attributeName="opacity" values="0;1" dur="0.1s" begin="2.6500000000000004s" fill="freeze"/><animateTransform attributeName="transform" type="translate" values="0,-170;0,6;0,-2;0,0" keyTimes="0;0.72;0.88;1" calcMode="spline" keySplines="0.35 0 0.35 1;0.4 0 0.6 1;0.4 0 0.6 1" dur="0.8s" begin="2.6500000000000004s" fill="freeze"/><rect x="547.0" y="91.0" width="16" height="9" rx="3" fill="#FE8A18"/><ellipse cx="555.0" cy="91.0" rx="8" ry="3" fill="#FFB463"/><rect x="531.0" y="97.0" width="48.0" height="14" rx="3.5" fill="#FE8A18"/><rect x="531.0" y="97.0" width="48.0" height="3.5" rx="2" fill="#FFB463" opacity="0.5"/><rect x="531.0" y="107.0" width="48.0" height="4" rx="2" fill="#C25F00" opacity="0.65"/></g>
<text x="555" y="83" font-family="monospace" font-size="10" font-weight="bold" fill="#FFB463" text-anchor="middle" opacity="0">9<animate attributeName="opacity" values="0;1" dur="0.4s" begin="1.8199999999999998s" fill="freeze"/></text>
<text x="555" y="272" font-family="monospace" font-size="8.5" fill="#8FA3B8" text-anchor="middle" letter-spacing="0.6">APR</text>
<text x="555" y="284" font-family="monospace" font-size="7" fill="#6C6E68" text-anchor="middle">’26</text>
<text x="625" y="244" font-family="monospace" font-size="9" fill="#6C6E68" text-anchor="middle" opacity="0">—<animate attributeName="opacity" values="0;0.7" dur="0.4s" begin="1.6400000000000001s" fill="freeze"/></text>
<text x="625" y="272" font-family="monospace" font-size="8.5" fill="#8FA3B8" text-anchor="middle" letter-spacing="0.6">MAY</text>
<text x="625" y="284" font-family="monospace" font-size="7" fill="#6C6E68" text-anchor="middle">’26</text>
<g opacity="0"><animate attributeName="opacity" values="0;1" dur="0.1s" begin="2.7s" fill="freeze"/><animateTransform attributeName="transform" type="translate" values="0,-170;0,6;0,-2;0,0" keyTimes="0;0.72;0.88;1" calcMode="spline" keySplines="0.35 0 0.35 1;0.4 0 0.6 1;0.4 0 0.6 1" dur="0.8s" begin="2.7s" fill="freeze"/><rect x="687.0" y="227.0" width="16" height="9" rx="3" fill="#A0A5A9"/><ellipse cx="695.0" cy="227.0" rx="8" ry="3" fill="#CDD1D4"/><rect x="671.0" y="233.0" width="48.0" height="14" rx="3.5" fill="#A0A5A9"/><rect x="671.0" y="233.0" width="48.0" height="3.5" rx="2" fill="#CDD1D4" opacity="0.5"/><rect x="671.0" y="243.0" width="48.0" height="4" rx="2" fill="#6C6E68" opacity="0.65"/></g>
<g opacity="0"><animate attributeName="opacity" values="0;1" dur="0.1s" begin="2.75s" fill="freeze"/><animateTransform attributeName="transform" type="translate" values="0,-170;0,6;0,-2;0,0" keyTimes="0;0.72;0.88;1" calcMode="spline" keySplines="0.35 0 0.35 1;0.4 0 0.6 1;0.4 0 0.6 1" dur="0.8s" begin="2.75s" fill="freeze"/><rect x="687.0" y="210.0" width="16" height="9" rx="3" fill="#A0A5A9"/><ellipse cx="695.0" cy="210.0" rx="8" ry="3" fill="#CDD1D4"/><rect x="671.0" y="216.0" width="48.0" height="14" rx="3.5" fill="#A0A5A9"/><rect x="671.0" y="216.0" width="48.0" height="3.5" rx="2" fill="#CDD1D4" opacity="0.5"/><rect x="671.0" y="226.0" width="48.0" height="4" rx="2" fill="#6C6E68" opacity="0.65"/></g>
<text x="695" y="202" font-family="monospace" font-size="10" font-weight="bold" fill="#CDD1D4" text-anchor="middle" opacity="0">2<animate attributeName="opacity" values="0;1" dur="0.4s" begin="1.94s" fill="freeze"/></text>
<text x="695" y="272" font-family="monospace" font-size="8.5" fill="#8FA3B8" text-anchor="middle" letter-spacing="0.6">JUN</text>
<text x="695" y="284" font-family="monospace" font-size="7" fill="#6C6E68" text-anchor="middle">’26</text>
<g opacity="0"><animate attributeName="opacity" values="0;1" dur="0.1s" begin="2.8s" fill="freeze"/><animateTransform attributeName="transform" type="translate" values="0,-170;0,6;0,-2;0,0" keyTimes="0;0.72;0.88;1" calcMode="spline" keySplines="0.35 0 0.35 1;0.4 0 0.6 1;0.4 0 0.6 1" dur="0.8s" begin="2.8s" fill="freeze"/><rect x="757.0" y="227.0" width="16" height="9" rx="3" fill="#2E9E4F"/><ellipse cx="765.0" cy="227.0" rx="8" ry="3" fill="#69D68C"/><rect x="741.0" y="233.0" width="48.0" height="14" rx="3.5" fill="#2E9E4F"/><rect x="741.0" y="233.0" width="48.0" height="3.5" rx="2" fill="#69D68C" opacity="0.5"/><rect x="741.0" y="243.0" width="48.0" height="4" rx="2" fill="#1B6B33" opacity="0.65"/></g>
<g opacity="0"><animate attributeName="opacity" values="0;1" dur="0.1s" begin="2.8500000000000005s" fill="freeze"/><animateTransform attributeName="transform" type="translate" values="0,-170;0,6;0,-2;0,0" keyTimes="0;0.72;0.88;1" calcMode="spline" keySplines="0.35 0 0.35 1;0.4 0 0.6 1;0.4 0 0.6 1" dur="0.8s" begin="2.8500000000000005s" fill="freeze"/><rect x="757.0" y="210.0" width="16" height="9" rx="3" fill="#2E9E4F"/><ellipse cx="765.0" cy="210.0" rx="8" ry="3" fill="#69D68C"/><rect x="741.0" y="216.0" width="48.0" height="14" rx="3.5" fill="#2E9E4F"/><rect x="741.0" y="216.0" width="48.0" height="3.5" rx="2" fill="#69D68C" opacity="0.5"/><rect x="741.0" y="226.0" width="48.0" height="4" rx="2" fill="#1B6B33" opacity="0.65"/></g>
<g opacity="0"><animate attributeName="opacity" values="0;1" dur="0.1s" begin="2.9000000000000004s" fill="freeze"/><animateTransform attributeName="transform" type="translate" values="0,-170;0,6;0,-2;0,0" keyTimes="0;0.72;0.88;1" calcMode="spline" keySplines="0.35 0 0.35 1;0.4 0 0.6 1;0.4 0 0.6 1" dur="0.8s" begin="2.9000000000000004s" fill="freeze"/><rect x="757.0" y="193.0" width="16" height="9" rx="3" fill="#2E9E4F"/><ellipse cx="765.0" cy="193.0" rx="8" ry="3" fill="#69D68C"/><rect x="741.0" y="199.0" width="48.0" height="14" rx="3.5" fill="#2E9E4F"/><rect x="741.0" y="199.0" width="48.0" height="3.5" rx="2" fill="#69D68C" opacity="0.5"/><rect x="741.0" y="209.0" width="48.0" height="4" rx="2" fill="#1B6B33" opacity="0.65"/></g>
<g opacity="0"><animate attributeName="opacity" values="0;1" dur="0.1s" begin="2.95s" fill="freeze"/><animateTransform attributeName="transform" type="translate" values="0,-170;0,6;0,-2;0,0" keyTimes="0;0.72;0.88;1" calcMode="spline" keySplines="0.35 0 0.35 1;0.4 0 0.6 1;0.4 0 0.6 1" dur="0.8s" begin="2.95s" fill="freeze"/><rect x="757.0" y="176.0" width="16" height="9" rx="3" fill="#2E9E4F"/><ellipse cx="765.0" cy="176.0" rx="8" ry="3" fill="#69D68C"/><rect x="741.0" y="182.0" width="48.0" height="14" rx="3.5" fill="#2E9E4F"/><rect x="741.0" y="182.0" width="48.0" height="3.5" rx="2" fill="#69D68C" opacity="0.5"/><rect x="741.0" y="192.0" width="48.0" height="4" rx="2" fill="#1B6B33" opacity="0.65"/></g>
<g opacity="0"><animate attributeName="opacity" values="0;1" dur="0.1s" begin="3.0s" fill="freeze"/><animateTransform attributeName="transform" type="translate" values="0,-170;0,6;0,-2;0,0" keyTimes="0;0.72;0.88;1" calcMode="spline" keySplines="0.35 0 0.35 1;0.4 0 0.6 1;0.4 0 0.6 1" dur="0.8s" begin="3.0s" fill="freeze"/><rect x="757.0" y="159.0" width="16" height="9" rx="3" fill="#2E9E4F"/><ellipse cx="765.0" cy="159.0" rx="8" ry="3" fill="#69D68C"/><rect x="741.0" y="165.0" width="48.0" height="14" rx="3.5" fill="#2E9E4F"/><rect x="741.0" y="165.0" width="48.0" height="3.5" rx="2" fill="#69D68C" opacity="0.5"/><rect x="741.0" y="175.0" width="48.0" height="4" rx="2" fill="#1B6B33" opacity="0.65"/></g>
<g opacity="0"><animate attributeName="opacity" values="0;1" dur="0.1s" begin="3.05s" fill="freeze"/><animateTransform attributeName="transform" type="translate" values="0,-170;0,6;0,-2;0,0" keyTimes="0;0.72;0.88;1" calcMode="spline" keySplines="0.35 0 0.35 1;0.4 0 0.6 1;0.4 0 0.6 1" dur="0.8s" begin="3.05s" fill="freeze"/><rect x="757.0" y="142.0" width="16" height="9" rx="3" fill="#2E9E4F"/><ellipse cx="765.0" cy="142.0" rx="8" ry="3" fill="#69D68C"/><rect x="741.0" y="148.0" width="48.0" height="14" rx="3.5" fill="#2E9E4F"/><rect x="741.0" y="148.0" width="48.0" height="3.5" rx="2" fill="#69D68C" opacity="0.5"/><rect x="741.0" y="158.0" width="48.0" height="4" rx="2" fill="#1B6B33" opacity="0.65"/></g>
<text x="765" y="134" font-family="monospace" font-size="10" font-weight="bold" fill="#69D68C" text-anchor="middle" opacity="0">6<animate attributeName="opacity" values="0;1" dur="0.4s" begin="2.0s" fill="freeze"/></text>
<text x="765" y="272" font-family="monospace" font-size="8.5" fill="#8FA3B8" text-anchor="middle" letter-spacing="0.6">JUL</text>
<text x="765" y="284" font-family="monospace" font-size="7" fill="#6C6E68" text-anchor="middle">’26</text>
<text x="835" y="244" font-family="monospace" font-size="9" fill="#6C6E68" text-anchor="middle" opacity="0">—<animate attributeName="opacity" values="0;0.7" dur="0.4s" begin="1.88s" fill="freeze"/></text>
<text x="835" y="272" font-family="monospace" font-size="8.5" fill="#8FA3B8" text-anchor="middle" letter-spacing="0.6">AUG</text>
<text x="835" y="284" font-family="monospace" font-size="7" fill="#6C6E68" text-anchor="middle">’26</text>
<text x="24" y="309" font-family="monospace" font-size="8" fill="#8FA3B8" letter-spacing="1.5" opacity="0">APRIL WAS THE BIG BUILD MONTH · MAY AND AUGUST WENT INTO SHIPPING WHAT WAS ALREADY ON THE TABLE<animate attributeName="opacity" values="0;0.7" dur="0.5s" begin="2.6s" fill="freeze"/></text>
</svg>
